<svg width="28" height="28" viewBox="0 0 28 28" fill="none" xmlns="http://www.w3.org/2000/svg">
<rect width="28" height="28" rx="4" fill="#AC78FF"/>
<path d="M18.599 19.2001H9.79992V10.401H15.0874L15.8873 9.60107H9.79992C9.58776 9.60107 9.3843 9.68535 9.23429 9.83536C9.08428 9.98538 9 10.1888 9 10.401V19.2001C9 19.4122 9.08428 19.6157 9.23429 19.7657C9.3843 19.9157 9.58776 20 9.79992 20H18.599C18.8111 20 19.0146 19.9157 19.1646 19.7657C19.3146 19.6157 19.3989 19.4122 19.3989 19.2001V13.2007L18.599 14.0006V19.2001Z" fill="white"/>
<path d="M20.8108 9.53708L19.463 8.18923C19.4031 8.12925 19.3321 8.08166 19.2538 8.04919C19.1756 8.01671 19.0917 8 19.007 8C18.9223 8 18.8384 8.01671 18.7602 8.04919C18.6819 8.08166 18.6109 8.12925 18.5511 8.18923L13.0676 13.7046L12.6237 15.6284C12.6048 15.7217 12.6068 15.818 12.6295 15.9104C12.6523 16.0028 12.6952 16.089 12.7552 16.1628C12.8153 16.2366 12.8909 16.2962 12.9768 16.3373C13.0626 16.3783 13.1565 16.3999 13.2516 16.4004C13.3008 16.4058 13.3504 16.4058 13.3996 16.4004L15.3394 15.9724L20.8108 10.449C20.8708 10.3892 20.9184 10.3181 20.9509 10.2399C20.9833 10.1616 21.0001 10.0777 21.0001 9.99304C21.0001 9.90833 20.9833 9.82445 20.9509 9.74621C20.9184 9.66797 20.8708 9.5969 20.8108 9.53708ZM14.9234 15.2325L13.4596 15.5564L13.7996 14.1046L17.9271 9.94904L19.055 11.0769L14.9234 15.2325ZM19.507 10.625L18.3791 9.49709L18.999 8.86516L20.1349 10.001L19.507 10.625Z" fill="white"/>
</svg>
